Coordinates
version=1
nRows=16
nColumns=22
inDegrees=yes

Units are S.I. units (second, meters, Newtons, ...)
If the header above contains a line with 'inDegrees', this indicates whether rotational values are in degrees (yes) or radians (no).

endheader
time	pelvis_tilt	pelvis_list	pelvis_rotation	pelvis_tx	pelvis_ty	pelvis_tz	hip_flexion_r	hip_adduction_r	hip_rotation_r	knee_angle_r	ankle_angle_r	subtalar_angle_r	hip_flexion_l	hip_adduction_l	hip_rotation_l	knee_angle_l	ankle_angle_l	subtalar_angle_l	lumbar_extension	lumbar_bending	lumbar_rotation
      0.01000000	     -0.49728846	     -4.07019214	     -2.16570323	     -1.49339081	      1.01188772	     -0.56548111	     -0.67803173	      1.56840056	     -5.01286234	     -9.28370991	      9.49827117	     -0.41641049	     -3.75189377	     -5.45028945	    -13.57190968	     -6.53036747	     11.54177767	     -1.49501755	     -4.51189744	      1.07092601	     -1.76596150
      0.02000000	     -0.51433237	     -4.05924452	     -2.16386877	     -1.49339055	      1.01185500	     -0.56554802	     -0.65398204	      1.55123369	     -5.05282480	     -9.29285748	      9.48701997	     -0.39371779	     -3.73657160	     -5.43347141	    -13.54559667	     -6.52309679	     11.57255674	     -1.47002314	     -4.49507336	      1.05972982	     -1.76803540
      0.03000000	     -0.52520337	     -4.05741861	     -2.16593771	     -1.49336449	      1.01183364	     -0.56560098	     -0.65177199	      1.54620462	     -5.07052804	     -9.27623257	      9.49261196	     -0.39085729	     -3.72500588	     -5.42831260	    -13.54855865	     -6.52622615	     11.57108596	     -1.46795279	     -4.48225372	      1.05674636	     -1.76118684
      0.04000000	     -0.55927283	     -4.04348985	     -2.15855430	     -1.49336701	      1.01177862	     -0.56567519	     -0.60775757	      1.52718624	     -5.09984893	     -9.28994023	      9.49882322	     -0.37805067	     -3.67817018	     -5.41216276	    -13.53918787	     -6.54116225	     11.57436012	     -1.46673075	     -4.44616818	      1.04086315	     -1.77679165
      0.05000000	     -0.56054820	     -4.04596549	     -2.15884170	     -1.49334054	      1.01177454	     -0.56572694	     -0.60821331	      1.52674694	     -5.09996252	     -9.28999991	      9.49890087	     -0.37804625	     -3.67818768	     -5.41118997	    -13.53918440	     -6.54137208	     11.57439323	     -1.46674667	     -4.44638757	      1.04004378	     -1.77672244
      0.06000000	     -0.56970379	     -4.04413639	     -2.15746731	     -1.49328015	      1.01175780	     -0.56579509	     -0.60793212	      1.52104695	     -5.11177314	     -9.27759333	      9.50378571	     -0.37606919	     -3.67149037	     -5.40443676	    -13.53866954	     -6.54120100	     11.58114828	     -1.47030815	     -4.43077401	      1.03647046	     -1.76551629
      0.07000000	     -0.57102227	     -4.04579675	     -2.15405806	     -1.49322657	      1.01175439	     -0.56585937	     -0.60894957	      1.51911159	     -5.11120500	     -9.28029488	      9.50382255	     -0.37560274	     -3.67198932	     -5.40214830	    -13.53850986	     -6.54265765	     11.58216102	     -1.47117691	     -4.42630699	      1.03588220	     -1.76445107
      0.08000000	     -0.57256174	     -4.04725011	     -2.15063838	     -1.49316854	      1.01175041	     -0.56592467	     -0.61022223	      1.51695303	     -5.11079423	     -9.28234336	      9.50414353	     -0.37493585	     -3.67250231	     -5.39941769	    -13.53792379	     -6.54399936	     11.58416268	     -1.47267509	     -4.42088226	      1.03465152	     -1.76152195
      0.09000000	     -0.57387347	     -4.04896772	     -2.14801147	     -1.49310800	      1.01174662	     -0.56598873	     -0.61191662	      1.51494884	     -5.11000944	     -9.28419932	      9.50458961	     -0.37416700	     -3.67355023	     -5.39689640	    -13.53704432	     -6.54519483	     11.58679166	     -1.47467936	     -4.41508844	      1.03305538	     -1.75679821
      0.10000000	     -0.57496773	     -4.05097389	     -2.14669635	     -1.49304247	      1.01174348	     -0.56604955	     -0.61404813	      1.51344559	     -5.10845802	     -9.28615529	      9.50516361	     -0.37317633	     -3.67562480	     -5.39447885	    -13.53594767	     -6.54619572	     11.59035038	     -1.47754931	     -4.40877406	      1.03145309	     -1.74906407
      0.11000000	     -0.57858043	     -4.05397730	     -2.16017946	     -1.49298520	      1.01173535	     -0.56608260	     -0.61276604	      1.51356665	     -5.09805429	     -9.28555898	      9.50869109	     -0.36771818	     -3.68149753	     -5.39182812	    -13.53494231	     -6.53967796	     11.60735587	     -1.49396062	     -4.40332777	      1.02756560	     -1.71036624
      0.12000000	     -0.57794483	     -4.05723688	     -2.15996283	     -1.49291873	      1.01173682	     -0.56614436	     -0.61588901	      1.51305552	     -5.09418237	     -9.28987858	      9.50852041	     -0.36704336	     -3.68556695	     -5.39086614	    -13.53689131	     -6.54126520	     11.60772720	     -1.49609418	     -4.39864735	      1.02846523	     -1.70686486
      0.13000000	     -0.56442440	     -4.07424311	     -2.19866171	     -1.49285885	      1.01175620	     -0.56613682	     -0.62868171	      1.52850612	     -5.03259825	     -9.29759659	      9.50819480	     -0.35415589	     -3.72118110	     -5.40094749	    -13.58475021	     -6.52254619	     11.61685354	     -1.53488748	     -4.41438026	      1.04110154	     -1.64665464
      0.14000000	     -0.55988243	     -4.07947506	     -2.20488823	     -1.49279251	      1.01176255	     -0.56618684	     -0.64036102	      1.53039907	     -5.02981842	     -9.29170988	      9.50723321	     -0.35152374	     -3.73036771	     -5.40211834	    -13.58784302	     -6.52494306	     11.61592032	     -1.54160714	     -4.41550707	      1.04148098	     -1.61873327
      0.15000000	     -0.53875073	     -4.09061731	     -2.22535173	     -1.49271789	      1.01179178	     -0.56621835	     -0.66824147	      1.53840878	     -4.98874419	     -9.28956428	      9.50181131	     -0.34338737	     -3.76955943	     -5.40663157	    -13.61884057	     -6.51019695	     11.61747868	     -1.56023962	     -4.43663918	      1.04988826	     -1.58378412
      0.16000000	     -0.53818877	     -4.09319432	     -2.22249230	     -1.49264876	      1.01178920	     -0.56629249	     -0.67200263	      1.53666933	     -4.98780080	     -9.29243057	      9.50137382	     -0.34322590	     -3.77341651	     -5.40529738	    -13.61886633	     -6.51132817	     11.61797971	     -1.56053188	     -4.43169478	      1.05113699	     -1.57938037
